<?xml version="1.0" standalone="no"?>
<!DOCTYPE svg PUBLIC "-//W3C//DTD SVG 20010904//EN"
 "http://www.w3.org/TR/2001/REC-SVG-20010904/DTD/svg10.dtd">
<svg version="1.0" xmlns="http://www.w3.org/2000/svg"
 width="600.000000pt" height="500.000000pt" viewBox="0 0 600.000000 500.000000"
 preserveAspectRatio="xMidYMid meet">
<g transform="translate(0.000000,500.000000) scale(0.100000,-0.100000)"
fill="#000000" stroke="none">
<path d="M1679 3814 c-11 -13 73 -101 637 -665 l649 -649 -650 -650 c-618
-618 -649 -651 -632 -667 16 -17 49 14 667 632 l650 650 650 -650 c618 -618
651 -649 667 -632 17 16 -14 49 -632 667 l-650 650 650 650 c618 618 649 651
632 667 -16 17 -49 -14 -667 -632 l-650 -650 -648 648 c-356 356 -650 647
-653 647 -4 0 -12 -7 -20 -16z"/>
<path d="M1603 3735 c0 -8 4 -12 9 -9 5 3 6 10 3 15 -9 13 -12 11 -12 -6z"/>
<path d="M4385 3741 c-3 -5 -2 -12 3 -15 5 -3 9 1 9 9 0 17 -3 19 -12 6z"/>
<path d="M1683 3655 c0 -8 4 -12 9 -9 5 3 6 10 3 15 -9 13 -12 11 -12 -6z"/>
<path d="M4305 3661 c-3 -5 -2 -12 3 -15 5 -3 9 1 9 9 0 17 -3 19 -12 6z"/>
<path d="M1763 3575 c0 -8 4 -12 9 -9 5 3 6 10 3 15 -9 13 -12 11 -12 -6z"/>
<path d="M2976 3569 c14 -15 20 -42 25 -99 4 -56 10 -83 23 -96 18 -17 19 -17
42 10 29 33 31 83 7 133 -17 37 -65 73 -97 73 -19 0 -19 0 0 -21z m82 -102 c2
-21 -3 -39 -13 -47 -13 -11 -15 -7 -15 29 0 25 5 41 12 41 6 0 3 7 -8 16 -19
15 -19 15 1 5 14 -6 22 -21 23 -44z"/>
<path d="M4225 3581 c-3 -5 -2 -12 3 -15 5 -3 9 1 9 9 0 17 -3 19 -12 6z"/>
<path d="M2911 3556 c-36 -38 -22 -136 25 -177 21 -19 84 -35 84 -22 0 4 -7
17 -15 27 -9 12 -15 42 -15 72 0 97 -37 144 -79 100z m53 -64 c1 -15 -6 -33
-14 -40 -8 -8 -10 -11 -5 -8 6 2 12 -5 12 -17 2 -21 1 -21 -17 3 -11 14 -20
30 -21 35 -5 46 -5 63 3 59 4 -3 8 2 8 11 0 29 33 -13 34 -43z"/>
<path d="M1843 3495 c0 -8 4 -12 9 -9 5 3 6 10 3 15 -9 13 -12 11 -12 -6z"/>
<path d="M4145 3501 c-3 -5 -2 -12 3 -15 5 -3 9 1 9 9 0 17 -3 19 -12 6z"/>
<path d="M1923 3415 c0 -8 4 -12 9 -9 5 3 6 10 3 15 -9 13 -12 11 -12 -6z"/>
<path d="M4065 3421 c-3 -5 -2 -12 3 -15 5 -3 9 1 9 9 0 17 -3 19 -12 6z"/>
<path d="M2725 3381 c-3 -5 -2 -12 3 -15 5 -3 9 1 9 9 0 17 -3 19 -12 6z"/>
<path d="M2814 3350 c-41 -16 -64 -58 -64 -117 0 -47 4 -59 29 -84 37 -36 49
-37 43 -1 -2 15 6 51 17 80 24 60 26 91 9 114 -9 11 -19 14 -34 8z m8 -74 c-9
-11 -12 -16 -5 -12 8 4 7 -2 -2 -21 -8 -15 -15 -37 -15 -47 0 -30 -18 -6 -23
31 -3 18 -1 35 4 39 5 3 7 9 4 14 -3 5 5 16 17 24 29 21 44 0 20 -28z"/>
<path d="M2003 3335 c0 -8 4 -12 9 -9 5 3 6 10 3 15 -9 13 -12 11 -12 -6z"/>
<path d="M2872 3322 c9 -22 6 -36 -11 -75 -41 -91 -37 -136 13 -123 65 16 88
145 36 201 -33 35 -51 33 -38 -3z m37 -90 c-3 -44 -42 -95 -53 -67 -3 9 -2 13
4 10 9 -5 15 23 11 48 0 4 3 7 8 7 5 0 13 9 16 20 10 31 16 24 14 -18z"/>
<path d="M3985 3341 c-3 -5 -2 -12 3 -15 5 -3 9 1 9 9 0 17 -3 19 -12 6z"/>
<path d="M3104 3321 c-58 -36 -82 -127 -44 -172 17 -22 19 -22 20 -5 0 11 27
45 60 77 42 40 60 65 60 82 0 40 -45 49 -96 18z m61 -21 c7 -11 -50 -70 -67
-70 -5 0 -7 -4 -4 -8 2 -4 -5 -8 -17 -9 -12 0 -16 1 -9 4 6 3 12 12 12 21 0
21 46 72 65 72 8 0 17 -5 20 -10z"/>
<path d="M3206 3284 c-4 -15 -32 -50 -62 -78 -68 -65 -73 -96 -15 -96 31 0 46
7 70 31 39 39 57 100 40 140 -14 36 -25 37 -33 3z m-4 -94 c-9 -17 -25 -33
-35 -36 -9 -3 -15 -9 -13 -13 3 -4 -4 -7 -14 -7 -19 0 -19 2 -3 26 21 32 35
45 53 53 27 10 29 7 12 -23z"/>
<path d="M2083 3255 c0 -8 4 -12 9 -9 5 3 6 10 3 15 -9 13 -12 11 -12 -6z"/>
<path d="M3905 3261 c-3 -5 -2 -12 3 -15 5 -3 9 1 9 9 0 17 -3 19 -12 6z"/>
<path d="M2163 3175 c0 -8 4 -12 9 -9 5 3 6 10 3 15 -9 13 -12 11 -12 -6z"/>
<path d="M3825 3181 c-3 -5 -2 -12 3 -15 5 -3 9 1 9 9 0 17 -3 19 -12 6z"/>
<path d="M3240 3116 c0 -2 8 -10 18 -17 15 -13 16 -12 3 4 -13 16 -21 21 -21
13z"/>
<path d="M2243 3095 c0 -8 4 -12 9 -9 5 3 6 10 3 15 -9 13 -12 11 -12 -6z"/>
<path d="M2941 3097 c-8 -10 -7 -14 2 -14 8 0 14 6 14 14 0 7 -1 13 -2 13 -2
0 -8 -6 -14 -13z"/>
<path d="M3745 3101 c-3 -5 -2 -12 3 -15 5 -3 9 1 9 9 0 17 -3 19 -12 6z"/>
<path d="M2323 3015 c0 -8 4 -12 9 -9 5 3 6 10 3 15 -9 13 -12 11 -12 -6z"/>
<path d="M3665 3021 c-3 -5 -2 -12 3 -15 5 -3 9 1 9 9 0 17 -3 19 -12 6z"/>
<path d="M2403 2935 c0 -8 4 -12 9 -9 5 3 6 10 3 15 -9 13 -12 11 -12 -6z"/>
<path d="M3585 2941 c-3 -5 -2 -12 3 -15 5 -3 9 1 9 9 0 17 -3 19 -12 6z"/>
<path d="M2483 2855 c0 -8 4 -12 9 -9 5 3 6 10 3 15 -9 13 -12 11 -12 -6z"/>
<path d="M3505 2861 c-3 -5 -2 -12 3 -15 5 -3 9 1 9 9 0 17 -3 19 -12 6z"/>
<path d="M1850 2556 c0 -258 1 -266 20 -266 19 0 20 8 22 224 l3 224 129 -224
c95 -166 133 -224 147 -224 18 0 19 13 19 265 0 261 0 265 -21 265 -20 0 -20
-4 -17 -225 2 -124 1 -225 -2 -225 -3 1 -62 101 -131 223 -96 169 -131 223
-148 225 l-21 3 0 -265z"/>
<path d="M3870 2555 l0 -265 43 0 c156 0 268 110 268 264 0 101 -49 189 -131
231 -24 12 -131 35 -167 35 -10 0 -13 -60 -13 -265z m124 214 c85 -24 156
-125 156 -223 -1 -107 -96 -206 -208 -218 l-33 -3 -2 228 -2 227 25 0 c14 0
42 -5 64 -11z"/>
<path d="M2563 2775 c0 -8 4 -12 9 -9 5 3 6 10 3 15 -9 13 -12 11 -12 -6z"/>
<path d="M3425 2781 c-3 -5 -2 -12 3 -15 5 -3 9 1 9 9 0 17 -3 19 -12 6z"/>
<path d="M1976 2752 c-3 -5 1 -9 9 -9 8 0 12 4 9 9 -3 4 -7 8 -9 8 -2 0 -6 -4
-9 -8z"/>
<path d="M2643 2695 c0 -8 4 -12 9 -9 5 3 6 10 3 15 -9 13 -12 11 -12 -6z"/>
<path d="M3345 2701 c-3 -5 -2 -12 3 -15 5 -3 9 1 9 9 0 17 -3 19 -12 6z"/>
<path d="M2723 2615 c0 -8 4 -12 9 -9 5 3 6 10 3 15 -9 13 -12 11 -12 -6z"/>
<path d="M3265 2621 c-3 -5 -2 -12 3 -15 5 -3 9 1 9 9 0 17 -3 19 -12 6z"/>
<path d="M2803 2535 c0 -8 4 -12 9 -9 5 3 6 10 3 15 -9 13 -12 11 -12 -6z"/>
<path d="M3185 2541 c-3 -5 -2 -12 3 -15 5 -3 9 1 9 9 0 17 -3 19 -12 6z"/>
<path d="M2886 2498 c3 -5 10 -6 15 -3 13 9 11 12 -6 12 -8 0 -12 -4 -9 -9z"/>
<path d="M3096 2498 c3 -5 10 -6 15 -3 13 9 11 12 -6 12 -8 0 -12 -4 -9 -9z"/>
<path d="M2865 2221 c-3 -5 -2 -12 3 -15 5 -3 9 1 9 9 0 17 -3 19 -12 6z"/>
<path d="M3123 2215 c0 -8 4 -12 9 -9 5 3 6 10 3 15 -9 13 -12 11 -12 -6z"/>
<path d="M2785 2141 c-3 -5 -2 -12 3 -15 5 -3 9 1 9 9 0 17 -3 19 -12 6z"/>
<path d="M3203 2135 c0 -8 4 -12 9 -9 5 3 6 10 3 15 -9 13 -12 11 -12 -6z"/>
<path d="M2705 2061 c-3 -5 -2 -12 3 -15 5 -3 9 1 9 9 0 17 -3 19 -12 6z"/>
<path d="M3283 2055 c0 -8 4 -12 9 -9 5 3 6 10 3 15 -9 13 -12 11 -12 -6z"/>
<path d="M2625 1981 c-3 -5 -2 -12 3 -15 5 -3 9 1 9 9 0 17 -3 19 -12 6z"/>
<path d="M3363 1975 c0 -8 4 -12 9 -9 5 3 6 10 3 15 -9 13 -12 11 -12 -6z"/>
<path d="M3189 1935 c-3 -2 -19 -5 -36 -7 -20 -1 -29 -6 -26 -15 3 -7 1 -13
-4 -13 -5 0 -10 -7 -10 -16 0 -14 2 -14 14 2 7 10 13 22 13 28 0 5 2 7 5 4 7
-7 -16 -58 -26 -58 -4 0 -10 4 -13 9 -4 5 -17 0 -30 -12 -28 -25 -24 -41 9
-35 17 4 22 1 18 -10 -3 -8 0 -18 8 -22 7 -5 10 -12 6 -16 -3 -4 -13 -1 -21 5
-8 7 -21 9 -27 5 -8 -4 -9 -3 -5 4 5 8 -3 12 -26 12 -24 0 -29 -3 -18 -9 8 -6
19 -7 25 -4 5 4 6 2 2 -3 -9 -9 -13 -10 -41 -13 -16 -1 -30 -46 -20 -63 5 -7
10 -3 16 11 4 12 12 19 18 16 5 -3 10 -1 10 4 0 6 7 11 16 11 9 0 12 -5 8 -12
-6 -9 -3 -9 9 0 9 8 22 12 29 10 7 -3 -10 -17 -38 -31 -35 -18 -54 -34 -58
-50 -3 -14 -13 -27 -21 -31 -9 -3 -13 -2 -10 4 4 6 -7 10 -24 10 -17 0 -31 5
-31 11 0 6 7 9 15 5 8 -3 15 -1 15 5 0 6 5 7 10 4 6 -3 10 1 10 10 0 18 -23
45 -39 45 -5 0 -13 5 -17 12 -4 6 -3 9 2 6 5 -4 9 7 10 24 1 21 -1 26 -8 16
-7 -9 -9 -8 -5 7 3 17 -2 20 -30 22 -18 1 -31 -2 -28 -7 9 -15 -12 -21 -39
-10 -16 6 -27 6 -31 0 -4 -6 -15 -10 -26 -10 -10 0 -19 -4 -19 -10 0 -5 6 -10
13 -10 8 0 22 -9 32 -20 18 -20 45 -27 45 -11 0 4 -11 16 -24 27 -28 20 -25
39 4 24 23 -12 52 -68 39 -76 -5 -3 -9 -2 -9 3 0 4 -10 9 -22 9 -13 1 -34 5
-48 9 -18 5 -14 0 14 -19 22 -14 44 -22 50 -19 6 3 8 3 4 -2 -4 -4 0 -14 10
-21 11 -8 19 -9 23 -2 4 6 7 -1 7 -15 0 -14 -7 -28 -14 -31 -8 -3 -14 -15 -14
-27 0 -20 1 -21 25 -5 32 21 38 20 26 -3 -8 -14 -6 -23 10 -37 14 -12 18 -26
15 -47 -3 -16 -1 -40 4 -53 7 -18 6 -22 -6 -17 -10 4 -12 0 -8 -11 4 -10 14
-15 23 -14 13 3 16 16 14 67 -1 35 -6 68 -12 74 -6 6 -11 17 -11 25 0 8 12 -3
27 -24 24 -36 30 -52 32 -94 1 -12 3 -12 17 1 22 23 9 63 -35 110 -24 24 -33
40 -25 43 7 3 15 -2 18 -11 4 -9 13 -13 22 -9 8 3 12 2 9 -4 -3 -6 -2 -10 3
-10 5 0 14 -10 20 -22 11 -23 11 -23 11 4 1 15 -3 30 -9 33 -6 4 -4 15 5 29 8
12 12 25 9 29 -3 3 13 17 36 32 41 26 59 28 45 6 -3 -6 -11 -9 -16 -5 -12 7
-59 -93 -59 -128 0 -29 15 -46 23 -26 2 7 8 10 12 6 4 -4 3 -13 -2 -20 -6 -7
-39 -68 -74 -136 -35 -67 -67 -118 -71 -114 -15 15 -30 197 -18 226 16 44 12
49 -15 19 -15 -17 -23 -21 -19 -10 3 9 10 17 15 17 5 0 9 5 9 11 0 5 -5 7 -12
3 -6 -4 -8 -3 -5 3 8 13 -16 35 -34 31 -7 -2 -13 2 -14 9 0 6 -4 15 -9 20 -5
5 -6 3 -2 -4 4 -7 3 -13 -2 -13 -6 0 -8 -9 -5 -20 6 -21 -12 -28 -20 -7 -7 21
13 51 46 71 l32 18 -29 23 c-41 33 -142 54 -173 36 -14 -8 -15 -11 -3 -12 8
-1 22 -3 30 -4 8 -1 28 -3 44 -4 20 -1 27 -5 23 -15 -4 -9 1 -16 11 -19 9 -2
-11 -2 -45 1 -42 3 -63 1 -63 -6 0 -6 -7 -9 -15 -6 -8 4 -15 1 -15 -5 0 -6 7
-11 16 -11 13 0 14 -3 5 -14 -9 -11 -6 -13 19 -12 17 1 34 6 38 11 7 10 25 16
55 20 10 1 22 7 26 14 6 10 10 9 14 -4 4 -9 3 -13 -3 -10 -6 3 -10 1 -10 -4 0
-6 -8 -11 -17 -12 -12 0 -14 -2 -5 -6 10 -4 7 -9 -10 -17 -12 -7 -22 -18 -21
-24 2 -7 -4 -9 -14 -5 -11 5 -14 3 -8 -6 6 -10 2 -11 -16 -7 -22 6 -22 6 -5
-5 18 -11 18 -12 -5 -26 -24 -13 -24 -13 11 -12 55 3 67 0 67 -15 0 -8 -6 -12
-14 -9 -7 3 -13 10 -13 15 0 7 -5 6 -13 -1 -8 -6 -17 -8 -20 -4 -4 3 -7 1 -7
-5 0 -16 36 -33 54 -26 8 3 27 21 41 40 14 18 34 38 44 43 16 9 17 7 13 -15
-4 -20 -7 -23 -14 -12 -7 9 -8 6 -5 -10 4 -18 2 -22 -9 -18 -7 3 -13 2 -12 -2
1 -4 -3 -17 -10 -29 -9 -17 -9 -22 2 -26 8 -3 20 0 26 8 6 8 19 11 28 8 15 -6
15 -5 3 13 -14 18 -14 18 4 2 14 -13 18 -33 20 -100 3 -145 0 -135 39 -130 28
3 34 8 31 24 -4 18 55 148 112 244 27 48 57 51 61 7 3 -34 6 -37 23 -16 12 15
12 16 -1 8 -12 -7 -13 -6 -3 7 7 8 10 18 6 21 -12 13 -8 77 5 77 6 0 13 -4 13
-10 3 -20 4 -25 13 -38 4 -7 5 -16 2 -19 -8 -9 15 -34 25 -27 5 3 9 0 9 -5 0
-6 -5 -11 -12 -11 -6 0 -9 -2 -6 -5 14 -14 38 10 39 39 1 18 3 24 6 13 4 -17
6 -17 20 3 12 17 17 19 24 9 5 -8 9 -9 9 -3 0 15 -27 37 -32 27 -3 -4 -3 -2
-2 5 2 7 -5 28 -16 47 -11 19 -17 35 -13 35 4 0 -6 13 -21 28 -25 27 -26 30
-9 43 16 13 17 12 4 -3 -9 -12 -10 -18 -2 -18 6 0 26 -16 44 -35 32 -36 61
-49 36 -17 -13 15 -12 16 4 3 14 -11 15 -16 5 -29 -10 -13 -10 -14 0 -8 8 5
12 0 13 -16 1 -18 2 -19 6 -5 5 18 5 18 20 0 13 -16 14 -16 9 0 -3 11 0 17 10
17 12 0 13 4 4 21 -8 13 -17 18 -28 14 -9 -3 -13 -3 -9 1 4 4 -5 15 -20 25
-31 21 -43 55 -13 39 9 -5 21 -6 25 -2 5 4 5 2 1 -5 -3 -6 -2 -14 4 -18 5 -3
10 0 11 7 0 7 3 6 7 -4 5 -12 11 -15 21 -8 34 20 -29 53 -122 63 -44 5 -55 12
-32 21 11 4 14 2 9 -6 -5 -8 -1 -9 12 -4 10 4 31 9 46 10 33 3 49 16 22 17
-10 1 -24 1 -31 0 -18 -2 -27 19 -13 32 10 9 12 8 7 -5 -4 -10 -2 -18 3 -18 6
0 10 5 10 11 0 5 5 7 10 4 6 -3 10 -1 10 5 0 8 6 8 20 0 16 -8 20 -8 20 3 0
16 -65 18 -88 3 -17 -11 -26 -1 -18 20 4 11 15 15 34 12 21 -3 28 0 28 13 0 9
-7 15 -16 13 -57 -11 -70 -16 -65 -24 14 -22 -4 -8 -20 16 -16 25 -16 25 3 15
15 -8 23 -7 33 6 12 14 12 16 0 8 -11 -6 -13 -4 -8 8 4 12 2 14 -10 10 -11 -4
-14 -2 -9 5 7 12 4 16 -5 7z m-26 -111 c-13 -13 -23 -29 -23 -36 0 -8 -5 -5
-11 5 -8 14 -7 22 8 33 17 13 17 14 0 8 -14 -5 -14 -2 5 19 19 22 24 23 33 10
9 -12 7 -21 -12 -39z m57 -20 c0 -8 -4 -14 -9 -14 -11 0 -22 26 -14 34 9 9 23
-3 23 -20z m-345 -14 c4 -6 3 -10 -2 -9 -20 3 -27 -2 -13 -11 9 -6 10 -10 3
-10 -19 0 -27 21 -12 31 18 11 17 11 24 -1z m308 -7 c-3 -7 -13 -13 -22 -12
-10 0 -11 2 -3 6 6 2 10 8 8 12 -3 4 1 8 8 8 8 0 12 -6 9 -14z m-298 -33 c-3
-5 2 -18 12 -28 25 -26 25 -36 0 -51 -12 -8 -19 -10 -15 -6 4 4 2 17 -4 29
-16 27 -16 38 -5 54 11 14 21 16 12 2z m253 -18 c2 -7 -2 -10 -12 -6 -9 3 -16
11 -16 16 0 13 23 5 28 -10z m42 -24 c12 -18 17 -27 9 -20 -10 10 -19 6 -44
-18 -27 -26 -31 -28 -31 -10 0 11 4 20 9 20 4 0 6 4 2 9 -3 5 0 13 6 17 7 4 9
3 5 -4 -10 -17 7 -22 22 -6 7 8 9 14 4 14 -5 0 -9 7 -9 15 0 20 0 20 27 -17z
m-87 -80 c-2 -24 -6 -54 -9 -67 -5 -22 -7 -23 -21 -8 -14 14 -14 17 1 32 9 9
16 25 16 35 0 18 10 50 15 50 2 0 1 -19 -2 -42z m122 0 c-2 -27 -5 -28 -26 -8
-12 11 -14 19 -6 32 14 22 34 7 32 -24z m-375 16 c0 -8 -19 -13 -24 -6 -3 5 1
9 9 9 8 0 15 -2 15 -3z m379 -100 c4 3 8 -2 8 -10 0 -24 -22 -9 -24 17 -1 15
0 17 3 6 3 -9 9 -15 13 -13z m-99 6 c0 -5 -2 -10 -4 -10 -3 0 -8 5 -11 10 -3
6 -1 10 4 10 6 0 11 -4 11 -10z m-325 -30 c-3 -5 -12 -10 -18 -10 -7 0 -6 4 3
10 19 12 23 12 15 0z"/>
<path d="M2545 1901 c-3 -5 -2 -12 3 -15 5 -3 9 1 9 9 0 17 -3 19 -12 6z"/>
<path d="M2465 1821 c-3 -5 -2 -12 3 -15 5 -3 9 1 9 9 0 17 -3 19 -12 6z"/>
<path d="M2385 1741 c-3 -5 -2 -12 3 -15 5 -3 9 1 9 9 0 17 -3 19 -12 6z"/>
<path d="M3603 1735 c0 -8 4 -12 9 -9 5 3 6 10 3 15 -9 13 -12 11 -12 -6z"/>
<path d="M2305 1661 c-3 -5 -2 -12 3 -15 5 -3 9 1 9 9 0 17 -3 19 -12 6z"/>
<path d="M3683 1655 c0 -8 4 -12 9 -9 5 3 6 10 3 15 -9 13 -12 11 -12 -6z"/>
<path d="M2225 1581 c-3 -5 -2 -12 3 -15 5 -3 9 1 9 9 0 17 -3 19 -12 6z"/>
<path d="M3763 1575 c0 -8 4 -12 9 -9 5 3 6 10 3 15 -9 13 -12 11 -12 -6z"/>
<path d="M3325 1561 c-3 -5 -2 -12 3 -15 5 -3 9 1 9 9 0 17 -3 19 -12 6z"/>
<path d="M3270 1531 c0 -6 4 -13 10 -16 6 -3 7 1 4 9 -7 18 -14 21 -14 7z"/>
<path d="M3326 1518 c3 -4 11 -5 19 -1 21 7 19 12 -4 10 -11 0 -18 -5 -15 -9z"/>
<path d="M2145 1501 c-3 -5 -2 -12 3 -15 5 -3 9 1 9 9 0 17 -3 19 -12 6z"/>
<path d="M3843 1495 c0 -8 4 -12 9 -9 5 3 6 10 3 15 -9 13 -12 11 -12 -6z"/>
<path d="M2065 1421 c-3 -5 -2 -12 3 -15 5 -3 9 1 9 9 0 17 -3 19 -12 6z"/>
<path d="M3923 1415 c0 -8 4 -12 9 -9 5 3 6 10 3 15 -9 13 -12 11 -12 -6z"/>
<path d="M1985 1341 c-3 -5 -2 -12 3 -15 5 -3 9 1 9 9 0 17 -3 19 -12 6z"/>
<path d="M4003 1335 c0 -8 4 -12 9 -9 5 3 6 10 3 15 -9 13 -12 11 -12 -6z"/>
<path d="M1905 1261 c-3 -5 -2 -12 3 -15 5 -3 9 1 9 9 0 17 -3 19 -12 6z"/>
<path d="M4083 1255 c0 -8 4 -12 9 -9 5 3 6 10 3 15 -9 13 -12 11 -12 -6z"/>
<path d="M1825 1181 c-3 -5 -2 -12 3 -15 5 -3 9 1 9 9 0 17 -3 19 -12 6z"/>
<path d="M4163 1175 c0 -8 4 -12 9 -9 5 3 6 10 3 15 -9 13 -12 11 -12 -6z"/>
</g>
</svg>
